<?xml version="1.0" encoding="UTF-8" standalone="no"?>
<!-- Generator: Adobe Illustrator 19.0.0, SVG Export Plug-In . SVG Version: 6.00 Build 0)  -->

<svg
   xmlns:dc="http://purl.org/dc/elements/1.1/"
   xmlns:cc="http://creativecommons.org/ns#"
   xmlns:rdf="http://www.w3.org/1999/02/22-rdf-syntax-ns#"
   xmlns:svg="http://www.w3.org/2000/svg"
   xmlns="http://www.w3.org/2000/svg"
   xmlns:sodipodi="http://sodipodi.sourceforge.net/DTD/sodipodi-0.dtd"
   xmlns:inkscape="http://www.inkscape.org/namespaces/inkscape"
   version="1.1"
   id="Layer_1"
   x="0px"
   y="0px"
   viewBox="0 0 512 512"
   style="enable-background:new 0 0 512 512;"
   xml:space="preserve"
   sodipodi:docname="flippedpig.svg"
   inkscape:version="0.92.2 (unknown)"><metadata
     id="metadata208"><rdf:RDF><cc:Work
         rdf:about=""><dc:format>image/svg+xml</dc:format><dc:type
           rdf:resource="http://purl.org/dc/dcmitype/StillImage" /><dc:title></dc:title></cc:Work></rdf:RDF></metadata><defs
     id="defs206" /><sodipodi:namedview
     pagecolor="#ffffff"
     bordercolor="#666666"
     borderopacity="1"
     objecttolerance="10"
     gridtolerance="10"
     guidetolerance="10"
     inkscape:pageopacity="0"
     inkscape:pageshadow="2"
     inkscape:window-width="1535"
     inkscape:window-height="876"
     id="namedview204"
     showgrid="false"
     inkscape:zoom="1.3085938"
     inkscape:cx="194.86567"
     inkscape:cy="219.95745"
     inkscape:window-x="65"
     inkscape:window-y="24"
     inkscape:window-maximized="1"
     inkscape:current-layer="Layer_1" /><g
     id="g436"
     transform="matrix(-1,0,0,1,511.99888,0)"><g
       id="g415"><g
         id="g395"><g
           id="g376"><g
             id="g358"><g
               id="g341"><g
                 id="g325"><g
                   id="g310"><g
                     id="g296"><g
                       id="g283"><g
                         id="g271"><g
                           id="g260"><g
                             id="g250"><g
                               id="g241"><g
                                 id="g233"><g
                                   id="g226"><g
                                   id="g220"><g
                                   id="g215"><g
                                   id="g211"><path
                                   id="path155"
                                   d="m 506.101,254.285 -7.255,-2.553 c -11.235,-3.954 -19.864,-13.266 -22.503,-24.879 -7.721,-33.985 -46.484,-65.836 -85.151,-69.263 -4.438,-0.393 -8.451,-2.518 -11.049,-6.138 C 345.373,102.984 279.113,70.214 203.034,70.214 90.901,70.212 0,141.353 0,229.109 c 0,87.756 90.901,158.897 203.034,158.897 43.977,0 84.666,-10.961 117.906,-29.559 6.773,-3.789 14.396,-5.801 22.147,-6.163 32.018,-1.495 91.845,-7.613 145.848,-31.495 4.726,-2.09 8.236,-6.258 9.688,-11.218 l 13.018,-44.48 c 1.319,-4.502 -1.115,-9.249 -5.54,-10.806 z"
                                   style="fill:#f0c087"
                                   inkscape:connector-curvature="0" /></g></g></g></g></g></g></g></g></g></g></g></g></g></g></g></g></g></g></g><path
     style="fill:#d59e6c"
     d="m 273.116,259.224 c 0,-20.056 11.831,-32.35 35.492,-37.525 l 8.329,-1.634 v -34.474 c -6.358,1.332 -11.375,5.099 -13.879,10.122 -2.119,4.249 -6.44,6.946 -11.189,6.946 -9.676,0 -15.951,-10.665 -10.801,-18.856 6.724,-10.691 19.328,-17.86 35.869,-19.698 v -5.954 c 0,-4.69 3.801,-8.491 8.491,-8.491 4.69,0 8.491,3.801 8.491,8.491 v 5.952 c 26.251,2.858 41.607,17.225 41.607,39.202 0,19.225 -11.923,32.073 -34.198,37.248 l -7.409,1.748 v 36.228 c 7.502,-1.395 13.21,-5.24 16.026,-10.642 2.189,-4.198 6.44,-6.909 11.174,-6.909 h 1.249 c 9.682,0 15.885,10.633 10.798,18.87 -6.93,11.221 -20.607,18.292 -39.247,19.857 v 4.003 c 0,4.69 -3.801,8.491 -8.491,8.491 -4.69,0 -8.491,-3.801 -8.491,-8.491 v -4.09 c -28.029,-2.884 -43.821,-17.351 -43.821,-40.394 z m 75.697,-58.229 c 0,-8.067 -6.093,-14.17 -14.895,-15.541 v 31.038 c 9.728,-2.651 14.895,-7.96 14.895,-15.497 z m -31.876,77.865 v -33.344 c -12.035,2.708 -17.664,8.068 -17.664,16.666 0,9.365 6.515,15.507 17.664,16.678 z"
     id="path157"
     inkscape:connector-curvature="0" /><g
     id="g165"
     transform="matrix(-1,0,0,1,520.288,0)"><path
       style="fill:#e6af78"
       d="m 266.22,333.659 25.705,93.012 c 2.455,8.884 11.279,15.116 21.402,15.116 v 0 c 10.516,0 19.57,-6.714 21.632,-16.043 l 20.785,-94.013 c 5.679,-25.689 -16.041,-49.657 -45.002,-49.657 v 0 c -29.856,0 -51.763,25.383 -44.522,51.585 z"
       id="path159"
       inkscape:connector-curvature="0" /><path
       style="fill:#e6af78"
       d="m 26.483,294.579 v 0 c 0,2.348 0.313,4.687 0.935,6.973 l 34.649,127.516 c 1.959,7.209 9.388,12.305 17.941,12.305 v 0 c 8.553,0 15.982,-5.095 17.941,-12.305 l 21.19,-77.983 c 8.619,-31.721 -6.876,-64.693 -38.625,-82.188 v 0 C 57.109,256 26.483,270.558 26.483,294.579 Z"
       id="path161"
       inkscape:connector-curvature="0" /><path
       style="fill:#e6af78"
       d="m 400.033,185.424 28.352,-85.057 c 1.809,-5.425 -3.421,-10.61 -8.792,-8.653 -22.885,8.335 -66.568,32.09 -50.208,88.84 0.796,2.76 2.995,4.958 5.719,5.866 l 13.762,4.587 c 4.626,1.542 9.626,-0.958 11.167,-5.583 z"
       id="path163"
       inkscape:connector-curvature="0" /></g><path
     style="fill:#d29b6e"
     d="m 96.564,255.592 v 0 c 4.875,0 8.828,-3.953 8.828,-8.828 v -8.828 c 0,-4.875 -3.953,-8.828 -8.828,-8.828 v 0 c -4.875,0 -8.828,3.953 -8.828,8.828 v 8.828 c 0,4.875 3.953,8.828 8.828,8.828 z"
     id="path167"
     inkscape:connector-curvature="0" /><path
     style="fill:#e6af78"
     d="m 31.351,320.789 c -1.849,-0.818 -3.442,-2.027 -4.868,-3.404 h 45.29 c 4.281,0 8.3,1.796 11.2,4.945 5.468,5.937 16.675,16.031 34.957,23.531 C 90.834,341.243 60.275,333.58 31.351,320.789 Z"
     id="path169"
     inkscape:connector-curvature="0" /><path
     style="fill:#af7850"
     d="m 370.228,111.626 c 4,0 7.62,-2.733 8.586,-6.802 1.121,-4.742 -1.818,-9.5 -6.569,-10.621 -29.543,-6.966 -61.224,-8.224 -91.647,-3.526 -4.819,0.742 -8.12,5.25 -7.38,10.069 0.74,4.819 5.224,8.12 10.069,7.38 28.224,-4.353 57.586,-3.19 84.905,3.267 0.682,0.156 1.363,0.233 2.036,0.233 z"
     id="path171"
     inkscape:connector-curvature="0" /><g
     id="g173" /><g
     id="g175" /><g
     id="g177" /><g
     id="g179" /><g
     id="g181" /><g
     id="g183" /><g
     id="g185" /><g
     id="g187" /><g
     id="g189" /><g
     id="g191" /><g
     id="g193" /><g
     id="g195" /><g
     id="g197" /><g
     id="g199" /><g
     id="g201" /></svg>